<svg width="170" height="30" viewBox="0 0 170 30" fill="none" xmlns="http://www.w3.org/2000/svg">
<mask id="mask0_509_1569" style="mask-type:luminance" maskUnits="userSpaceOnUse" x="0" y="0" width="170" height="30">
<path d="M170 0H0V30H170V0Z" fill="white"/>
</mask>
<g mask="url(#mask0_509_1569)">
<mask id="mask1_509_1569" style="mask-type:luminance" maskUnits="userSpaceOnUse" x="0" y="0" width="170" height="30">
<path d="M169.278 0H0V30H169.278V0Z" fill="white"/>
</mask>
<g mask="url(#mask1_509_1569)">
<path fill-rule="evenodd" clip-rule="evenodd" d="M61.4209 10.8628C61.4209 10.5904 61.6105 10.4448 61.8486 10.4448C62.2515 10.4448 62.8598 10.8628 63.2028 11.6987C63.0799 11.6987 62.8947 11.7351 62.7706 11.7351C62.037 11.7351 61.4209 11.3944 61.4209 10.8628ZM17.0407 10.8628C17.0407 10.5904 17.2223 10.4448 17.4706 10.4448C17.8633 10.4448 18.4468 10.8628 18.7854 11.6987C17.6523 11.6987 17.0407 11.4594 17.0407 10.8628ZM25.6005 6.54303C25.6005 2.0711 26.492 1.38404 26.7685 1.38404C27.2606 1.38404 27.3193 1.68401 27.3193 3.39889C27.3193 5.1612 26.5507 7.46719 25.6005 8.73323V6.54303ZM56.7601 10.9521C56.232 11.6712 55.8042 12.6924 55.8042 14.008C55.8042 16.528 57.2747 18.9332 60.1321 18.9332C62.8947 18.9332 64.8302 16.8004 64.8302 13.8261C64.8302 12.9625 64.7963 12.8435 64.7387 12.485C65.3809 12.2115 65.935 11.7935 66.3661 11.4594C66.7329 11.1892 67.0071 11.0381 67.226 11.0381C67.5014 11.0381 67.6222 11.2487 67.6222 11.6381V17.5227C67.6222 18.4811 67.9325 18.9332 68.6964 18.9332C69.4007 18.9332 69.8961 18.4502 70.1704 17.8811C71.186 15.8111 72.6565 13.0519 73.2986 12.0042C73.4532 11.7638 73.5784 11.5796 73.6665 11.5796C73.7895 11.5796 73.8527 11.6712 73.8527 12.0594V16.7441C73.8527 18.062 74.4688 18.9332 75.8141 18.9332C77.2292 18.9332 77.9312 17.6087 79.1681 15.5696C79.2267 15.4472 79.2527 15.3601 79.2527 15.2729C79.2527 15.0027 79.0134 14.8495 78.7663 14.8495C78.4875 14.8495 78.334 15.1219 77.4155 16.1089C77.2292 16.2964 77.0487 16.5566 76.7079 16.5566C76.586 16.5566 76.4923 16.4122 76.4923 16.2291V10.9775C76.4923 9.567 75.8468 8.99791 75.0185 8.99791C74.3448 8.99791 73.7895 9.26809 73.2072 10.1085C72.1633 11.6116 71.0889 13.7434 70.5077 14.8175C70.4423 14.9432 70.3543 15.1219 70.2944 15.1219C70.2301 15.1219 70.2031 15.0292 70.2031 14.8175V10.9775C70.2031 9.87027 69.8961 8.99791 68.6964 8.99791C67.437 8.99791 66.7938 9.83936 65.8729 10.468C65.2895 10.8925 64.7693 11.1892 64.372 11.369C63.7547 9.83936 62.6205 9.06407 61.6692 9.08724C60.7144 9.11918 60.0396 9.69273 60.0396 10.6533C60.0396 11.6381 60.6568 12.324 61.4819 12.6295C61.94 12.8093 62.3711 12.8435 62.9884 12.8435C63.1735 12.8435 63.3563 12.8435 63.4748 12.8093C63.5403 13.1081 63.5109 13.5338 63.5109 13.8625C63.5109 15.3347 62.6205 16.8004 60.965 16.8004C59.2417 16.8004 58.2328 15.1804 58.2328 13.3221C58.2328 11.9105 58.6605 10.7425 59.3614 9.93527C59.6446 9.63318 59.8556 9.45009 59.8556 9.17327C59.8556 9.03321 59.6446 8.99792 59.4584 8.99792C58.2892 8.99792 57.0038 9.50964 56.1157 9.95736C54.9432 10.5584 53.5652 11.5521 52.4277 12.5413C51.8758 11.3381 51.201 10.2882 50.8613 9.47546C50.7395 9.14573 50.6503 8.76302 50.4043 8.76302C50.1864 8.76302 50.0917 8.97255 49.9416 9.38609C49.3908 10.9775 46.442 15.6314 45.7976 16.2611C45.7367 16.3471 45.6475 16.4419 45.6182 16.4419C45.5516 16.4419 45.5166 16.4122 45.5166 16.2291V10.9775C45.5166 9.567 44.9343 8.99792 44.1422 8.99792C43.4638 8.99792 42.8826 9.26809 42.3309 10.1085C41.3197 11.6116 40.0862 13.8018 39.505 14.8793C39.4114 15.0645 39.3188 15.1219 39.2872 15.1219C39.2568 15.1219 39.2319 15.0027 39.2319 14.8175V10.9775C39.2319 9.567 38.6462 8.99792 37.8473 8.99792C37.1701 8.99792 36.5291 9.24382 36.0043 10.1085C34.7179 12.2413 32.5702 15.5112 32.1708 16.0472C32.1087 16.1398 32.0466 16.2005 31.9856 16.2291C31.9248 16.2291 31.8898 16.1706 31.8898 16.0218V10.9775C31.8898 9.567 31.3074 8.99792 30.5141 8.99792C29.407 8.99792 28.7965 9.99264 28.3936 10.6191C27.8384 11.4892 27.1049 12.6615 26.5237 13.7434C26.123 14.4668 25.7834 15.1219 25.6592 15.1219C25.6005 15.1219 25.6005 14.8495 25.6005 14.3411V10.3224C27.5315 8.21822 28.7299 5.64093 28.7299 2.82102C28.7299 1.19767 27.9964 0.302179 26.8633 0.302179C24.7405 0.302179 23.1177 3.54336 23.1177 7.38008V10.5C22.1337 11.101 21.2117 11.3944 20.0742 11.6116C19.493 9.93527 18.2629 9.06408 17.2844 9.08725C16.3353 9.11918 15.6571 9.69273 15.6571 10.6533C15.6571 12.2413 17.254 12.9008 18.6623 12.9008H19.0619C19.1217 13.203 19.1217 13.5338 19.1217 13.8625C19.1217 15.3347 18.2324 16.8004 16.5791 16.8004C14.8615 16.8004 13.8458 15.1804 13.8458 13.3221C13.8458 11.9105 14.2713 10.7425 14.9778 9.93527C15.2565 9.63318 15.4732 9.36291 15.4732 9.17327C15.4732 9.03321 15.2565 8.99792 15.0703 8.99792C13.9045 8.99792 11.3292 10.5342 8.2574 13.5338C7.98542 11.133 7.67621 8.79058 7.67621 6.50995C7.67621 3.96133 8.19193 1.79649 8.31495 1.1723C8.37702 0.785207 8.41539 0.541485 8.41539 0.365034C8.41539 0.123515 8.28448 0 7.95382 0C5.4643 0 0 3.872 0 9.66182C0 13.7676 1.53817 15.7494 4.20374 18.2991C2.58545 20.8499 1.28764 23.8783 1.28764 26.5791C1.28764 28.5255 1.7526 30 3.22193 30C6.29263 30 8.59256 23.7635 8.59256 19.1405C8.59256 17.762 8.53613 16.3802 8.41539 15.0027C9.54733 13.8261 11.2976 12.2413 11.7242 12.0913C11.5414 12.7221 11.4184 13.3838 11.4184 14.008C11.4184 16.528 12.8945 18.9332 15.7462 18.9332C18.4209 18.9332 20.4432 16.8004 20.4432 13.8261C20.4432 13.4423 20.4116 13.1081 20.3845 12.7497C21.3618 12.5699 22.2612 12.324 23.1177 11.8223V17.8514C23.1177 18.6277 23.6663 18.9332 24.1887 18.9332C24.8985 18.9332 25.2664 18.4502 25.7833 17.3463C26.2178 16.4419 27.3801 14.3742 28.0855 13.1401C28.6419 12.1774 28.9488 11.552 29.196 11.552C29.2535 11.552 29.319 11.6987 29.319 12.0594V17.1907C29.319 18.5715 30.0559 18.9332 30.6936 18.9332C31.3074 18.9332 31.7091 18.6035 32.1087 18.062C33.7067 15.8398 35.3972 13.203 36.0675 12.0594C36.1917 11.8542 36.344 11.6987 36.4682 11.6987C36.5878 11.6987 36.6498 11.7638 36.6498 12.1486V17.5227C36.6498 18.4811 36.9568 18.9332 37.7276 18.9332C38.4295 18.9332 38.8889 18.4502 39.163 17.8811C40.1832 15.8111 41.6831 13.0795 42.3309 12.0042C42.4809 11.7638 42.6355 11.552 42.7269 11.552C42.8545 11.552 42.8826 11.6987 42.8826 12.0913V17.1907C42.8826 18.5715 43.6196 18.9332 44.2685 18.9332C45.1205 18.9332 45.6792 18.33 46.231 17.6429C47.2377 16.3471 48.7126 14.0466 49.6041 12.5699C49.9133 13.0519 50.2474 13.6231 50.5284 14.2517C49.7904 15.1219 49.0523 16.1089 49.0523 17.1576C49.0523 18.2693 49.8502 18.9332 50.6796 18.9332C52.0891 18.9332 53.3768 17.6087 53.3768 15.7825C53.3768 15.0645 53.1658 14.3124 52.8915 13.5945C54.143 12.3913 55.6496 11.2212 56.7601 10.9521ZM6.19784 17.4918C6.44612 19.0799 6.66166 20.6437 6.66166 21.8711C6.66166 24.7462 5.68211 28.1075 3.99271 28.08C3.34043 28.08 2.79196 27.4425 2.76488 26.3386C2.70281 22.7424 4.45202 19.6809 6.19784 17.4918ZM51.0148 15.4472C51.201 15.9633 51.2946 16.3802 51.2946 16.8004C51.2946 17.2812 51.1096 17.762 50.7699 17.762C50.5284 17.762 50.2824 17.4918 50.2824 17.0705C50.2824 16.6195 50.6796 15.8994 51.0148 15.4472ZM7.30605 1.14032C7.30605 1.32338 6.87608 2.16043 6.32536 3.66246C5.74192 5.21965 5.18555 7.43742 5.18555 10.1085C5.18555 11.6987 5.58844 13.8018 5.92813 15.9303L4.94518 17.2249C3.37767 15.3601 2.39698 13.2636 2.39698 9.66182C2.39698 4.56347 5.55797 1.02673 7.18191 1.02673C7.27896 1.02673 7.30605 1.05319 7.30605 1.14032Z" fill="#565E6E"/>
<path fill-rule="evenodd" clip-rule="evenodd" d="M151.448 10.8628C151.448 10.5904 151.628 10.4448 151.876 10.4448C152.272 10.4448 152.887 10.8628 153.223 11.6987C153.103 11.6987 152.919 11.7351 152.79 11.7351C152.061 11.7351 151.448 11.3944 151.448 10.8628ZM107.059 10.8628C107.059 10.5904 107.246 10.4448 107.489 10.4448C107.888 10.4448 108.477 10.8628 108.807 11.6987C107.673 11.6987 107.059 11.4594 107.059 10.8628ZM115.624 6.54303C115.624 2.0711 116.51 1.38404 116.79 1.38404C117.279 1.38404 117.342 1.68401 117.342 3.39889C117.342 5.1612 116.572 7.46719 115.624 8.73323V6.54303ZM96.2274 17.4918C96.465 19.0799 96.6885 20.6437 96.6885 21.8711C96.6885 24.7462 95.708 28.1075 94.0155 28.08C93.3719 28.08 92.8189 27.4425 92.7885 26.3386C92.7253 22.7424 94.4776 19.6809 96.2274 17.4918ZM141.043 15.4472C141.229 15.9633 141.317 16.3802 141.317 16.8004C141.317 17.2812 141.133 17.762 140.796 17.762C140.553 17.762 140.301 17.4918 140.301 17.0705C140.301 16.6195 140.704 15.8994 141.043 15.4472ZM97.3263 1.14032C97.3263 1.32338 96.9008 2.16043 96.3448 3.66246C95.7653 5.21965 95.2093 7.43742 95.2093 10.1085C95.2093 11.6987 95.6188 13.8018 95.9541 15.9303L94.9688 17.2249C93.4058 15.3601 92.4183 13.2636 92.4183 9.66182C92.4183 4.56347 95.5859 1.02673 97.2098 1.02673C97.299 1.02673 97.3263 1.05319 97.3263 1.14032ZM92.2084 16.1397C92.7568 16.8599 93.4339 17.5492 94.2315 18.2991C92.6034 20.8499 91.3158 23.8783 91.3158 26.5791C91.3158 28.5255 91.7796 30 93.2534 30C96.3194 30 98.6196 23.7635 98.6196 19.1405C98.6196 17.762 98.5595 16.3802 98.4364 15.0027C99.5738 13.8261 101.318 12.2413 101.754 12.0913C101.569 12.7221 101.441 13.3838 101.441 14.008C101.441 16.528 102.916 18.9332 105.774 18.9332C108.441 18.9332 110.467 16.8004 110.467 13.8261C110.467 13.4423 110.439 13.1081 110.405 12.7497C111.388 12.5699 112.284 12.324 113.139 11.8223V17.8514C113.139 18.6277 113.689 18.9332 114.207 18.9332C114.922 18.9332 115.29 18.4502 115.809 17.3463C116.237 16.4419 117.406 14.3742 118.113 13.1401C118.665 12.1774 118.972 11.552 119.223 11.552C119.281 11.552 119.338 11.6987 119.338 12.0594V17.1907C119.338 18.5715 120.072 18.9332 120.719 18.9332C121.335 18.9332 121.729 18.6035 122.137 18.062C123.728 15.8398 125.419 13.203 126.092 12.0594C126.215 11.8542 126.371 11.6987 126.489 11.6987C126.609 11.6987 126.677 11.7638 126.677 12.1486V17.5227C126.677 18.4811 126.98 18.9332 127.747 18.9332C128.453 18.9332 128.913 18.4502 129.192 17.8811C130.206 15.8111 131.709 13.0795 132.351 12.0042C132.508 11.7638 132.66 11.552 132.756 11.552C132.876 11.552 132.91 11.6987 132.91 12.0913V17.1907C132.91 18.5715 133.64 18.9332 134.283 18.9332C135.149 18.9332 135.701 18.33 136.25 17.6429C137.262 16.3471 138.74 14.0466 139.629 12.5699C139.932 13.0519 140.274 13.6231 140.553 14.2517C139.808 15.1219 139.08 16.1089 139.08 17.1576C139.08 18.2693 139.869 18.9332 140.704 18.9332C142.112 18.9332 143.4 17.6087 143.4 15.7825C143.4 15.0645 143.187 14.3124 142.911 13.5945C144.167 12.3913 145.673 11.2212 146.778 10.9521C146.256 11.6712 145.827 12.6924 145.827 14.008C145.827 16.528 147.302 18.9332 150.157 18.9332C152.919 18.9332 154.848 16.8004 154.848 13.8261C154.848 12.9625 154.82 12.8435 154.763 12.485C155.4 12.2115 155.957 11.7935 156.39 11.4594C156.751 11.1892 157.033 11.0381 157.244 11.0381C157.521 11.0381 157.651 11.2487 157.651 11.6381V17.5227C157.651 18.4811 157.953 18.9332 158.722 18.9332C159.424 18.9332 159.918 18.4502 160.196 17.8811C161.203 15.8111 162.679 13.0519 163.321 12.0042C163.474 11.7638 163.6 11.5796 163.692 11.5796C163.818 11.5796 163.877 11.6712 163.877 12.0594V16.7441C163.877 18.062 164.486 18.9332 165.84 18.9332C167.256 18.9332 167.961 17.6087 169.19 15.5696C169.248 15.4472 169.278 15.3601 169.278 15.2729C169.278 15.0027 169.032 14.8495 168.787 14.8495C168.513 14.8495 168.356 15.1219 167.438 16.1089C167.256 16.2964 167.069 16.5566 166.732 16.5566C166.606 16.5566 166.519 16.4122 166.519 16.2291V10.9775C166.519 9.567 165.867 8.99791 165.039 8.99791C164.367 8.99791 163.818 9.26809 163.232 10.1085C162.186 11.6116 161.115 13.7434 160.536 14.8175C160.47 14.9432 160.38 15.1219 160.315 15.1219C160.249 15.1219 160.225 15.0292 160.225 14.8175V10.9775C160.225 9.87027 159.918 8.99791 158.722 8.99791C157.459 8.99791 156.819 9.83936 155.898 10.468C155.309 10.8925 154.792 11.1892 154.389 11.369C153.78 9.83936 152.641 9.06407 151.694 9.08724C150.737 9.11918 150.068 9.69273 150.068 10.6533C150.068 11.6381 150.682 12.324 151.503 12.6295C151.965 12.8093 152.395 12.8435 153.017 12.8435C153.196 12.8435 153.375 12.8435 153.505 12.8093C153.565 13.1081 153.533 13.5338 153.533 13.8625C153.533 15.3347 152.641 16.8004 150.981 16.8004C149.265 16.8004 148.255 15.1804 148.255 13.3221C148.255 11.9105 148.682 10.7425 149.385 9.93527C149.665 9.63318 149.882 9.45009 149.882 9.17327C149.882 9.03321 149.665 8.99792 149.481 8.99792C148.32 8.99792 147.026 9.50964 146.136 9.95736C144.968 10.5584 143.587 11.5521 142.455 12.5413C141.901 11.3381 141.229 10.2882 140.888 9.47546C140.761 9.14573 140.677 8.76301 140.423 8.76301C140.21 8.76301 140.116 8.97255 139.965 9.38609C139.411 10.9775 136.467 15.6314 135.822 16.2611C135.76 16.3471 135.669 16.4419 135.636 16.4419C135.578 16.4419 135.544 16.4122 135.544 16.2291V10.9775C135.544 9.567 134.966 8.99791 134.16 8.99791C133.484 8.99791 132.91 9.26809 132.351 10.1085C131.337 11.6116 130.112 13.8018 129.529 14.8793C129.438 15.0645 129.348 15.1219 129.319 15.1219C129.283 15.1219 129.252 15.0027 129.252 14.8175V10.9775C129.252 9.567 128.673 8.99791 127.875 8.99791C127.197 8.99791 126.548 9.24382 126.031 10.1085C124.738 12.2413 122.592 15.5112 122.191 16.0471C122.137 16.1398 122.071 16.2005 122.006 16.2291C121.952 16.2291 121.915 16.1706 121.915 16.0217V10.9775C121.915 9.567 121.335 8.99791 120.534 8.99791C119.425 8.99791 118.816 9.99264 118.414 10.6191C117.862 11.4892 117.13 12.6615 116.544 13.7434C116.147 14.4668 115.809 15.1219 115.686 15.1219C115.624 15.1219 115.624 14.8495 115.624 14.3411V10.3224C117.561 8.21822 118.754 5.64093 118.754 2.82101C118.754 1.19766 118.018 0.302173 116.879 0.302173C114.764 0.302173 113.139 3.54336 113.139 7.38007V10.4999C112.154 11.101 111.233 11.3944 110.095 11.6115C109.516 9.93527 108.288 9.06407 107.311 9.08724C106.353 9.11918 105.681 9.69273 105.681 10.6533C105.681 12.2413 107.272 12.9008 108.687 12.9008H109.089C109.146 13.203 109.146 13.5338 109.146 13.8625C109.146 15.3347 108.258 16.8004 106.599 16.8004C104.88 16.8004 103.872 15.1803 103.872 13.3221C103.872 11.9105 104.3 10.7425 105.002 9.93527C105.277 9.63309 105.494 9.36291 105.494 9.17327C105.494 9.0332 105.277 8.99791 105.095 8.99791C103.927 8.99791 101.351 10.5341 98.2777 13.5338C98.0082 11.133 97.6973 8.79058 97.6973 6.50995C97.6973 3.96133 98.2185 1.79649 98.3416 1.1723C98.4026 0.785207 98.4364 0.541485 98.4364 0.365034C98.4364 0.123515 98.3115 0 97.98 0C95.492 0 90.0281 3.872 90.0281 9.66182C90.0281 12.0285 90.5495 13.7125 91.4703 15.1803C91.1273 15.1219 90.8575 15.1219 90.6059 15.1219C89.6274 15.1219 88.7032 15.3601 88.1299 15.4825V14.8793C88.1299 13.5945 87.8185 11.8223 87.2643 11.2212C87.1989 11.1595 87.1075 11.133 87.0217 11.133C86.7689 11.133 86.4665 11.2487 86.1301 11.4307C85.7577 11.6115 85.3898 11.7935 85.3898 11.9105C85.3898 11.9678 85.3898 12.0285 85.4824 12.1774C85.6991 12.485 86.2837 13.0795 86.4947 14.4933C85.4485 13.4721 84.2568 13.0188 82.6973 13.0188C80.8521 13.0188 80.2969 13.8261 80.2969 14.641C80.2969 16.2005 82.4151 16.9801 85.0897 16.9801C85.5795 16.9801 86.1302 16.8896 86.6798 16.7673C86.6798 17.2481 86.7418 17.6738 86.7418 18.0311C86.7418 18.5417 86.831 18.9332 87.173 18.9332C87.6932 18.9332 88.0024 17.9087 88.0611 16.4419C89.0124 16.2005 89.9965 15.9931 90.8282 15.9931C91.2254 15.9931 91.722 16.0471 92.2084 16.1397ZM86.1618 15.8398C85.6449 15.8994 85.3301 15.8994 84.7827 15.8994C83.582 15.8994 82.6973 15.4472 82.6973 14.7932C82.6973 14.3742 82.9094 14.1305 83.5233 14.1305C84.5073 14.1305 85.3007 14.7932 86.1618 15.8398Z" fill="#565E6E"/>
</g>
</g>
</svg>
