<svg width="176" height="30" viewBox="0 0 176 30" fill="none" xmlns="http://www.w3.org/2000/svg">
<g clip-path="url(#clip0_509_1579)">
<mask id="mask0_509_1579" style="mask-type:luminance" maskUnits="userSpaceOnUse" x="38" y="0" width="100" height="30">
<path d="M138 0H38V30H138V0Z" fill="white"/>
</mask>
<g mask="url(#mask0_509_1579)">
<path fill-rule="evenodd" clip-rule="evenodd" d="M67.7133 0.848633L56.6091 29.1505H58.467L69.5712 0.848633H67.7133ZM99.0187 0.848633L87.9358 29.1505H89.7937L100.877 0.848633H99.0187ZM135.214 0.848633L124.131 29.1505H125.989L137.072 0.848633H135.214ZM78.6467 3.36852C74.1623 3.36852 71.13 6.00004 71.13 9.88692C71.13 11.3481 71.6459 12.6142 72.6035 13.6147C73.5294 14.551 74.6629 15.0191 76.7248 15.6347L79.0098 16.322C81.7371 17.1234 83.003 18.4345 83.003 20.3205C83.003 21.5742 82.4819 22.5988 81.4228 23.3819C80.4917 24.0707 79.6085 24.3399 77.8993 24.3399C75.5094 24.3399 73.6669 23.7209 71.7279 22.3614L70.3826 24.6939C72.7734 26.1342 75.0857 26.7972 77.8993 26.7972C80.0177 26.7972 81.5654 26.3574 83.0884 25.402C85.1555 24.1124 86.313 22.074 86.313 19.9457C86.313 18.5186 85.7304 16.9909 84.7755 15.9263C83.8196 14.8617 82.7382 14.2553 80.6968 13.6355L78.0702 12.8233C75.3957 11.9862 74.3759 11.029 74.3759 9.34545C74.3759 7.17959 75.9929 5.82593 78.7963 5.82593C81.0684 5.82593 82.4931 6.55732 84.3911 7.76271L85.7363 5.59685C83.554 4.15406 81.3007 3.36852 78.6467 3.36852ZM104.72 3.82669V26.3391H107.817V15.5722H117.576V26.3391H120.736V3.82669H117.576V13.0523H107.817V3.82669H104.72ZM38.9277 3.86833V26.3807H45.2913C48.7935 26.3807 49.7023 26.19 50.993 25.7143C53.3539 24.8213 54.794 22.5047 54.794 20.1539C54.794 18.4545 54.1858 16.641 52.5945 15.4682C51.8847 14.9259 51.1185 14.5968 49.968 14.3436C52.3801 13.4298 53.7903 11.8462 53.7903 9.55368C53.7903 7.15127 52.1435 5.18784 49.6903 4.36814C48.4637 3.9583 47.2952 3.86834 42.6434 3.86833H38.9277ZM41.9601 6.3674H45.2913C46.4863 6.3674 47.1807 6.43487 47.8111 6.59648C49.3469 6.978 50.3736 8.18005 50.3736 9.92853C50.3736 10.5433 50.2404 10.9323 50.0106 11.4488C49.3571 12.9116 47.9333 13.3647 46.0388 13.3647H41.9601V6.3674ZM41.9601 15.8639H46.1028C47.2551 15.8639 48.1716 15.9822 48.8148 16.1138C50.4044 16.4295 51.5481 17.9672 51.5481 19.9248C51.5481 22.578 50.2473 23.8608 46.957 23.8608H41.9601V15.8639Z" fill="#565E6E"/>
</g>
</g>
<defs>
<clipPath id="clip0_509_1579">
<rect width="100" height="30" fill="white" transform="translate(38)"/>
</clipPath>
</defs>
</svg>
