<svg width="176" height="30" viewBox="0 0 176 30" fill="none" xmlns="http://www.w3.org/2000/svg">
<path fill-rule="evenodd" clip-rule="evenodd" d="M56.9381 9.83789V24.0888H59.6674V9.83789H56.9381ZM100.421 10.1698C98.6692 10.1698 97.0601 11.0483 97.0601 13.4886V14.7183H95.7768V16.9828H97.0601V24.0888H99.7894V16.9828H101.745V14.7183H99.7894V13.5862C99.7894 12.7858 100.319 12.4344 101.093 12.4344C101.48 12.4344 101.867 12.4931 102.193 12.6296V10.4821C101.643 10.2675 101.134 10.1698 100.421 10.1698ZM38.8408 11.1225V13.6681H42.1352V24.4197H44.9V13.6681H48.1944V11.1225H38.8408ZM65.201 14.4646C62.4715 14.4646 60.8826 16.3778 60.8826 19.4039C60.8826 22.4688 62.6343 24.3427 65.8322 24.3427C66.912 24.3427 67.8083 24.206 68.6024 23.8544V21.9024C67.7876 22.2148 67.014 22.3125 66.199 22.3125C64.7935 22.3125 63.9381 21.7657 63.7142 20.3993H69.1932C69.5189 16.6121 67.9914 14.4646 65.201 14.4646ZM75.3736 14.4646C74.1107 14.4646 73.3164 15.0697 72.868 15.675V14.7185H70.424V28.3834H73.1533V23.386C73.6217 23.8937 74.3349 24.3427 75.4347 24.3427C77.8582 24.3427 78.9583 22.2929 78.9583 19.4039C78.9583 16.7682 78.0011 14.4646 75.3736 14.4646ZM84.1012 14.4646C81.3715 14.4646 79.7826 16.3778 79.7826 19.4039C79.7826 22.4688 81.5346 24.3427 84.7324 24.3427C85.812 24.3427 86.7083 24.206 87.5026 23.8544V21.9024C86.6879 22.2148 85.9138 22.3125 85.099 22.3125C83.6937 22.3125 82.8381 21.7657 82.6141 20.3993H88.0932C88.4193 16.6121 86.8914 14.4646 84.1012 14.4646ZM123.383 14.4646C122.324 14.4646 121.489 14.8942 120.918 15.597V14.7185H118.474V24.089H121.163V17.7638C121.509 17.1976 121.978 16.8854 122.528 16.8854C123.159 16.8854 123.546 17.2563 123.546 18.0175V24.089H126.214V17.7247C126.561 17.1976 127.009 16.8854 127.579 16.8854C128.231 16.8854 128.598 17.2563 128.598 18.0175V24.089H131.286V17.4711C131.286 15.7921 130.329 14.4646 128.353 14.4646C127.294 14.4646 126.418 14.7967 125.705 15.597C125.237 14.8942 124.442 14.4646 123.383 14.4646ZM136.293 14.4646C135.172 14.4646 133.97 14.699 133.074 15.0112V17.2563C133.889 16.9244 134.928 16.6706 136.028 16.6706C137.372 16.6706 137.739 17.3344 137.739 18.0957V18.6033C137.148 18.4861 136.7 18.4276 136.17 18.4276C133.991 18.4276 132.463 19.4231 132.463 21.4338C132.463 23.4055 133.909 24.3427 135.579 24.3427C136.598 24.3427 137.474 24.0692 138.207 23.5032C138.615 24.0106 139.307 24.2255 140.061 24.2255C140.55 24.2255 140.957 24.1667 141.364 24.0497V22.2148C141.262 22.2343 141.14 22.2538 141.038 22.2538C140.651 22.2538 140.407 22.0976 140.407 21.629V18.2909C140.407 15.6164 139.002 14.4646 136.293 14.4646ZM147.465 14.4646C146.182 14.4646 145.367 14.9724 144.817 15.597V14.7185H142.373V24.089H145.102V17.8223C145.367 17.3344 145.856 16.8854 146.569 16.8854C147.282 16.8854 147.689 17.2173 147.689 18.0175V24.089H150.419V17.4515C150.419 15.4995 149.013 14.4646 147.465 14.4646ZM163.487 14.4646C160.757 14.4646 159.169 16.3778 159.169 19.4039C159.169 22.4688 160.92 24.3427 164.118 24.3427C165.198 24.3427 166.094 24.206 166.888 23.8544V21.9024C166.074 22.2148 165.3 22.3125 164.485 22.3125C163.079 22.3125 162.224 21.7657 162 20.3993H167.479C167.805 16.6121 166.277 14.4646 163.487 14.4646ZM106.517 14.4648C103.686 14.4648 102.117 16.3193 102.117 19.4037C102.117 22.4882 103.686 24.3427 106.517 24.3427C109.328 24.3427 110.896 22.4882 110.896 19.4037C110.896 16.2996 109.328 14.4648 106.517 14.4648ZM156.201 14.4648C153.513 14.4648 151.557 16.2608 151.557 19.4817C151.557 22.6053 153.451 24.3427 156.079 24.3427C157.077 24.3427 157.831 24.206 158.442 23.9325V21.6682C157.932 21.8829 157.342 22.0585 156.507 22.0585C155.101 22.0585 154.307 21.1021 154.307 19.4037C154.307 17.7052 155.203 16.7096 156.629 16.7096C157.301 16.7096 157.831 16.8464 158.34 17.1001V14.8941C157.668 14.5818 157.036 14.4648 156.201 14.4648ZM94.3883 14.5078C93.1226 14.5144 92.169 15.0643 91.6338 16.1436V14.7185H89.1896V24.089H91.9189V18.7788C92.4485 17.4712 93.4872 17.0221 94.791 17.1783V14.5233C94.6534 14.5123 94.5192 14.5072 94.3883 14.5078ZM117.077 14.5078C115.811 14.5144 114.857 15.0643 114.322 16.1436V14.7185H111.878V24.089H114.607V18.7788C115.137 17.4712 116.176 17.0221 117.479 17.1783V14.5233C117.342 14.5123 117.208 14.5072 117.077 14.5078ZM51.6275 14.5224C48.898 14.5224 47.3091 16.4357 47.3091 19.4617C47.3091 22.5266 49.0611 24.4006 52.2589 24.4006C53.3385 24.4006 54.2346 24.2639 55.0289 23.9125V21.9602C54.2141 22.2728 53.4403 22.3704 52.6255 22.3704C51.22 22.3704 50.3646 21.8238 50.1406 20.4574H55.6199C55.9454 16.6701 54.4179 14.5224 51.6275 14.5224ZM65.2416 16.6122C66.2803 16.6122 66.6878 17.3344 66.6878 18.6618H63.6122C63.7142 17.3929 64.2029 16.6122 65.2416 16.6122ZM84.1416 16.6122C85.1803 16.6122 85.5878 17.3344 85.5878 18.6618H82.5124C82.6144 17.3929 83.1029 16.6122 84.1416 16.6122ZM163.527 16.6122C164.566 16.6122 164.974 17.3344 164.974 18.6618H161.898C162 17.3929 162.489 16.6122 163.527 16.6122ZM51.6681 16.6701C52.7071 16.6701 53.1143 17.3924 53.1143 18.72H50.0387C50.1406 17.4509 50.6294 16.6701 51.6681 16.6701ZM106.517 16.7294C107.678 16.7294 108.146 17.6857 108.146 19.4037C108.146 21.1217 107.678 22.0585 106.517 22.0585C105.335 22.0585 104.867 21.1217 104.867 19.4037C104.867 17.6857 105.335 16.7294 106.517 16.7294ZM74.6402 16.7489C75.8011 16.7489 76.2492 17.7054 76.2492 19.4039C76.2492 21.1021 75.8011 22.0585 74.6402 22.0585C73.9883 22.0585 73.4793 21.6877 73.1533 21.1022V17.7054C73.4793 17.1196 73.9883 16.7489 74.6402 16.7489ZM136.761 20.1064C137.087 20.1064 137.392 20.1454 137.739 20.2237V22.0196C137.311 22.3907 136.883 22.566 136.272 22.566C135.621 22.566 135.091 22.1951 135.091 21.3558C135.091 20.4188 135.763 20.1064 136.761 20.1064Z" fill="#565E6E"/>
<path d="M24.4602 1.37598L8.61258 1.38013C8.11331 1.36983 7.66089 1.80623 7.68111 2.2899C7.67792 3.8366 7.68122 5.38216 7.67911 6.92783C7.67272 7.19332 7.74185 7.47128 7.95156 7.65446L13.6127 13.0674L13.618 7.42807C13.6191 7.27928 13.4265 7.23253 13.303 7.24283C11.9159 7.23974 10.5289 7.25007 9.14285 7.23977C8.84264 7.26653 8.55413 7.01637 8.58713 6.71895C8.58179 5.41409 8.58602 4.1093 8.58497 2.80444C8.54239 2.49777 8.82552 2.22198 9.14167 2.25388L23.6054 2.25902C23.8939 2.26108 24.1101 2.53481 24.0835 2.80444C24.0877 4.10828 24.093 5.41302 24.0813 6.71686C24.0973 6.96797 23.9004 7.19025 23.6523 7.2417C22.2567 7.23965 20.8622 7.24588 19.4666 7.24077C19.3335 7.26135 19.1302 7.19851 19.0599 7.34979C18.9899 12.6872 19.0286 18.3531 19.0323 22.9836C19.0578 23.1802 18.9492 23.3491 18.8492 23.5096C18.3882 23.6238 17.9091 23.5703 17.4397 23.5796L13.9911 23.5428C13.9911 23.5428 16.2581 25.8754 17.3982 26.9393C17.8719 27.3475 18.3318 27.8675 18.8353 27.9347L23.2009 27.914C23.5564 27.8759 23.8129 27.5363 23.7927 27.1998C23.8012 24.1114 23.7853 21.0222 23.8002 17.9329C23.814 17.6077 24.2664 17.7486 24.4847 17.7126C24.4847 17.7126 33.588 18.117 33.6219 9.73135C33.588 1.45193 24.4224 1.38154 24.4602 1.37598Z" fill="#565E6E"/>
</svg>
