<svg width="176" height="30" viewBox="0 0 176 30" fill="none" xmlns="http://www.w3.org/2000/svg">
<path d="M96.584 4.20306L102.878 6.5953L96.584 8.85823V12.091L107.364 7.8884V5.3022L96.584 1.09961V4.20306Z" fill="#565E6E"/>
<path d="M38.798 16.2285C35.7849 16.2285 33.5753 17.5216 33.3744 20.2371H36.7223V20.1725C36.7893 19.2673 37.6597 18.6208 38.5972 18.6854C39.8694 18.6854 40.472 19.3966 40.472 20.6251V21.207H38.9319C35.651 21.207 32.9727 22.1768 32.9727 25.2156V25.3449C32.9727 27.8018 34.8475 28.9009 37.1241 28.9009C38.5302 28.9656 39.8024 28.319 40.6059 27.2846V28.707H44.0208V20.5604C43.9538 17.457 41.7442 16.2285 38.798 16.2285ZM38.0615 26.5087C36.8562 26.5087 36.3206 25.9268 36.3206 25.0863V24.957C36.3206 23.8578 37.191 23.4052 38.9319 23.4052H40.3381V24.569C40.405 25.8621 39.2667 26.5087 38.0615 26.5087Z" fill="#565E6E"/>
<path d="M52.0561 26.3794C50.3821 26.3794 49.5117 25.2802 49.5117 22.8233V22.4354C49.5117 20.0432 50.5161 18.8794 52.0561 18.8794C53.2614 18.8794 53.9309 19.6552 54.1318 20.819H57.4797C57.2119 17.6509 54.8014 16.2285 51.9891 16.2285C48.6412 16.2285 45.9629 18.4268 45.9629 22.5647V22.694C45.9629 26.832 48.5073 28.9009 51.9891 28.9009C55.404 28.9009 57.3458 26.8966 57.6136 24.1811H54.3996C54.1318 25.5389 53.2614 26.3794 52.0561 26.3794Z" fill="#565E6E"/>
<path d="M65.1127 26.3794C63.4388 26.3794 62.5683 25.2802 62.5683 22.8233V22.4354C62.5683 20.0432 63.5727 18.8794 65.1127 18.8794C66.318 18.8794 66.9876 19.6552 67.1885 20.819H70.5364C70.2685 17.6509 67.858 16.2285 65.0458 16.2285C61.6979 16.2285 59.0195 18.4268 59.0195 22.5647V22.694C59.0195 26.832 61.5639 28.9009 65.0458 28.9009C68.4607 28.9009 70.4025 26.8966 70.6033 24.1811H67.4563C67.2554 25.5389 66.318 26.3794 65.1127 26.3794Z" fill="#565E6E"/>
<path d="M78.3043 26.444C76.7642 26.444 75.8269 25.6035 75.693 23.4052H83.8619V21.9828C83.8619 17.9742 81.2505 16.2285 78.1035 16.2285C74.6886 16.2285 72.0771 18.4914 72.0771 22.5647V22.8233C72.0771 26.8966 74.5546 28.9656 78.1704 28.9656C81.4513 28.9656 83.4601 27.2199 83.7949 24.8923H80.514C80.3801 25.8621 79.3756 26.5733 78.3043 26.444ZM78.1035 18.5561C79.5096 18.5561 80.38 19.332 80.4469 21.1423H75.7599C76.0277 19.2027 77.0322 18.6208 78.1035 18.5561Z" fill="#565E6E"/>
<path d="M93.3698 16.2284C91.7628 16.1637 90.2897 16.9396 89.5531 18.2973V16.487H86.0713V28.6421H89.5531V21.2068C89.5531 21.0775 89.5531 21.0128 89.5531 20.8835C89.6201 19.7844 90.6245 18.8792 91.7627 18.9439C93.035 18.9439 93.6376 19.5904 93.6376 21.0128V28.6421H97.1864V20.4956C97.1864 17.5215 95.6463 16.2284 93.3698 16.2284Z" fill="#565E6E"/>
<path d="M103.748 24.763V19.0087H106.159V16.4871H103.748V12.8018L100.267 14.2242V16.4871H98.7266V19.0087H100.2V25.1509C100.2 27.6078 101.472 28.8362 104.217 28.8362C104.887 28.8362 105.556 28.7716 106.226 28.5776V25.9268C105.824 26.0561 105.422 26.1207 105.021 26.1207C104.217 26.1207 103.748 25.6681 103.748 24.763Z" fill="#565E6E"/>
<path d="M115.867 24.052C115.867 24.1813 115.867 24.2459 115.867 24.3752C115.8 25.4744 114.796 26.3795 113.657 26.3149C112.385 26.3149 111.85 25.6683 111.85 24.2459V16.4873H108.301V24.6985C108.301 27.5433 109.975 28.9011 112.251 28.9011C113.791 28.9658 115.197 28.1899 115.934 26.8321V28.6425H119.483V16.4873H115.934L115.867 24.052Z" fill="#565E6E"/>
<path d="M125.509 18.6854V16.4225H122.027V28.5777H125.509V22.3061C125.509 20.3018 126.915 19.5906 129.326 19.5906V16.2285C127.585 16.2285 126.045 17.1983 125.509 18.6854Z" fill="#565E6E"/>
<path d="M142.182 21.9182C142.182 17.9096 139.571 16.2285 136.424 16.2285C133.009 16.2285 130.397 18.4914 130.397 22.5647V22.8233C130.397 26.8966 132.875 28.9656 136.491 28.9656C139.772 28.9656 141.713 27.2199 142.115 24.8923H138.834C138.566 25.9268 137.562 26.5733 136.491 26.5087C134.951 26.5087 134.013 25.6682 133.879 23.4699H142.048V21.9182H142.182ZM134.013 21.1423C134.281 19.138 135.285 18.5561 136.424 18.5561C137.83 18.5561 138.7 19.332 138.767 21.1423H134.013Z" fill="#565E6E"/>
</svg>
