<svg width="176" height="30" viewBox="0 0 176 30" fill="none" xmlns="http://www.w3.org/2000/svg">
<mask id="mask0_509_1602" style="mask-type:luminance" maskUnits="userSpaceOnUse" x="23" y="0" width="130" height="30">
<path d="M152.389 0H23.5V30H152.389V0Z" fill="white"/>
</mask>
<g mask="url(#mask0_509_1602)">
<mask id="mask1_509_1602" style="mask-type:luminance" maskUnits="userSpaceOnUse" x="-25" y="-20" width="212" height="63">
<path d="M186.188 42.2831H-24.5088V-19.9031H186.188V42.2831Z" fill="white"/>
</mask>
<g mask="url(#mask1_509_1602)">
<path d="M118.853 17.6165C118.853 19.1195 118.909 19.162 120.322 19.162H125.034C125.234 19.162 125.401 19.323 125.401 19.5188V20.6666C125.401 20.9186 125.31 21.0097 125.034 21.0431C124.435 21.1342 123.223 21.2936 121.013 21.2936C117.918 21.2936 116.283 21.3134 116.283 17.615V11.9353C116.283 8.2354 117.918 8.25513 121.013 8.25513C123.223 8.25513 124.433 8.41758 125.034 8.50564C125.31 8.54208 125.401 8.63165 125.401 8.88368V10.03C125.401 10.2273 125.233 10.3913 125.034 10.3913H120.322C118.909 10.3913 118.853 10.4308 118.853 11.9338V13.578H124.806C125.014 13.578 125.176 13.742 125.176 13.9363V15.2314C125.176 15.4272 125.014 15.5897 124.806 15.5897H118.853V17.6165ZM146.363 21.3027C144.718 21.3027 143.052 21.031 142.159 20.8321C141.976 20.7956 141.806 20.6712 141.806 20.4738V19.1818C141.806 18.9844 141.976 18.8402 142.159 18.8402H142.196C142.941 18.9298 144.684 19.1636 146.404 19.1636C148.057 19.1636 148.562 18.5927 148.562 17.5512C148.562 16.2046 145.233 15.4591 143.606 14.8139C141.99 14.1671 141.414 12.9313 141.414 11.6742C141.414 9.69896 143.063 8.26272 146.52 8.26272C148.293 8.26272 149.918 8.58762 150.549 8.73641C150.737 8.77285 150.881 8.89734 150.881 9.07497V10.4034C150.881 10.5811 150.755 10.7253 150.567 10.7253H150.53C149.303 10.619 148.029 10.4019 146.413 10.4019C145.033 10.4019 144.001 10.8665 144.001 11.6742C144.001 12.2648 144.701 12.8098 145.527 13.1241C146.353 13.4368 147.437 13.8452 148.675 14.3265C150.239 14.9384 151.257 15.8296 151.257 17.5497C151.256 19.364 150.085 21.3027 146.363 21.3027ZM136.473 12.3164C136.473 10.9697 135.392 10.3959 133.527 10.3959C133.139 10.3959 131.447 10.4323 131.111 10.4657V14.3584C131.411 14.3766 133.216 14.4131 133.527 14.4131C135.445 14.4131 136.473 14.0563 136.473 12.4773V12.3164ZM139.264 21.1524H136.99C136.787 21.1524 136.713 20.9718 136.62 20.7926L133.939 16.4414H133.524C133.043 16.4414 131.54 16.3898 131.107 16.3685V20.7926C131.107 20.99 130.961 21.1524 130.757 21.1524H128.898C128.692 21.1524 128.526 20.99 128.526 20.7926V9.02943C128.526 8.66809 128.746 8.5436 129.119 8.48894C130.086 8.34623 132.169 8.25665 133.523 8.25665C136.391 8.25665 139.034 9.24501 139.034 12.3149V12.4773C139.034 14.3781 138.046 15.4196 136.523 15.9905L139.446 20.7941C139.484 20.8488 139.484 20.8989 139.484 20.9399C139.487 21.0613 139.412 21.1524 139.264 21.1524ZM114.002 10.4824H110.29V20.7941C110.29 20.9915 110.119 21.1539 109.913 21.1539H108.074C107.867 21.1539 107.701 20.9915 107.701 20.7941V10.4824H103.986C103.785 10.4824 103.616 10.3609 103.616 10.162V8.744C103.616 8.54511 103.785 8.4024 103.986 8.4024H114.002C114.203 8.4024 114.372 8.54511 114.372 8.744V10.162C114.372 10.3609 114.203 10.4824 114.002 10.4824ZM96.1932 21.2951C93.2023 21.2951 90.622 20.0396 90.622 16.2121V8.744C90.622 8.54511 90.7919 8.4024 90.9964 8.4024H92.8341C93.0418 8.4024 93.207 8.54511 93.207 8.744V16.2121C93.207 18.2602 94.1872 19.2304 96.1932 19.2304C98.2055 19.2304 99.1826 18.2602 99.1826 16.2121V8.744C99.1826 8.54511 99.3509 8.4024 99.5539 8.4024H101.395C101.602 8.4024 101.769 8.54511 101.769 8.744V16.2121C101.771 20.0396 99.1904 21.2951 96.1932 21.2951ZM81.2936 17.6165C81.2936 19.1195 81.3534 19.162 82.7599 19.162H87.469C87.6751 19.162 87.8419 19.323 87.8419 19.5188V20.6666C87.8419 20.9186 87.7475 21.0097 87.469 21.0431C86.8742 21.1342 85.6612 21.2936 83.4491 21.2936C80.3621 21.2936 78.7243 21.3134 78.7243 17.615V11.9353C78.7243 8.2354 80.3621 8.25513 83.4491 8.25513C85.6612 8.25513 86.8727 8.41758 87.469 8.50564C87.749 8.54208 87.8419 8.63165 87.8419 8.88368V10.03C87.8419 10.2273 87.6735 10.3913 87.469 10.3913H82.7599C81.3534 10.3913 81.2936 10.4308 81.2936 11.9338V13.578H87.2471C87.4517 13.578 87.62 13.742 87.62 13.9363V15.2314C87.62 15.4272 87.4517 15.5897 87.2471 15.5897H81.2936V17.6165ZM73.3198 12.3164C73.3198 10.9697 72.2374 10.3959 70.3777 10.3959C69.9843 10.3959 68.2914 10.4323 67.9594 10.4657V14.3584C68.2536 14.3766 70.0567 14.4131 70.3777 14.4131C72.2909 14.4131 73.3198 14.0563 73.3198 12.4773V12.3164ZM76.111 21.1524H73.839C73.6361 21.1524 73.5605 20.9718 73.4693 20.7926L70.7883 16.4414H70.3792C69.8931 16.4414 68.3889 16.3898 67.961 16.3685V20.7926C67.961 20.99 67.81 21.1524 67.6054 21.1524H65.7457C65.5428 21.1524 65.376 20.99 65.376 20.7926V9.02943C65.376 8.66809 65.5962 8.5436 65.9707 8.48894C66.9399 8.34623 69.0199 8.25665 70.3792 8.25665C73.2427 8.25665 75.8891 9.24501 75.8891 12.3149V12.4773C75.8891 14.3781 74.9026 15.4196 73.378 15.9905L76.2966 20.7941C76.3344 20.8488 76.3344 20.8989 76.3344 20.9399C76.3328 21.0613 76.2588 21.1524 76.111 21.1524Z" fill="#565E6E"/>
</g>
<path d="M38.7847 10.036C38.522 10.1726 38.4291 10.4899 38.566 10.7404C38.706 10.997 39.038 11.0881 39.3008 10.9545C39.5619 10.8163 39.6579 10.5005 39.5179 10.2455C39.4219 10.0724 39.2363 9.9707 39.0427 9.9707C38.9546 9.97222 38.8665 9.99347 38.7847 10.036ZM40.2369 10.0587C40.0009 10.1787 39.9191 10.4595 40.0434 10.6858C40.1661 10.9104 40.4572 10.9955 40.69 10.871C40.9276 10.748 41.011 10.4686 40.8867 10.2439C40.8017 10.0891 40.6381 10.001 40.4682 10.001C40.3895 9.99955 40.3109 10.0193 40.2369 10.0587ZM37.4065 10.4322C37.1107 10.5871 36.9974 10.9454 37.1594 11.2308C37.3199 11.5177 37.6897 11.6286 37.9917 11.4722C38.2891 11.3173 38.3977 10.959 38.2388 10.6736C38.1286 10.4732 37.9178 10.3609 37.6991 10.3609C37.6 10.3609 37.4993 10.3836 37.4065 10.4322ZM41.6309 10.496C41.4264 10.6053 41.3477 10.8558 41.4578 11.0501C41.568 11.2475 41.8276 11.3188 42.0258 11.2111C42.2351 11.1048 42.3106 10.8588 42.1973 10.663C42.1218 10.5263 41.9755 10.4489 41.826 10.4489C41.7583 10.4504 41.6923 10.4641 41.6309 10.496ZM36.313 11.3234C36.0471 11.4646 35.948 11.7743 36.0927 12.0339C36.2343 12.2844 36.5584 12.3801 36.8212 12.2434C37.0886 12.1068 37.1862 11.788 37.0446 11.5375C36.947 11.3629 36.7598 11.2612 36.5663 11.2612C36.4798 11.2596 36.3932 11.2809 36.313 11.3234ZM42.8298 11.3295C42.6504 11.4236 42.5859 11.6331 42.6788 11.8016C42.7732 11.9702 42.9903 12.0309 43.1712 11.9459C43.3443 11.8502 43.4135 11.6392 43.3175 11.4692C43.2515 11.3538 43.1272 11.2854 42.9997 11.2854C42.9431 11.287 42.8833 11.3006 42.8298 11.3295ZM43.7156 12.4697C43.5756 12.5486 43.5174 12.7278 43.5992 12.8659C43.6763 13.0071 43.8588 13.0572 44.0019 12.9828C44.1483 12.9069 44.2033 12.7338 44.1247 12.5926C44.068 12.4924 43.9642 12.4378 43.8572 12.4378C43.8084 12.4378 43.7612 12.4469 43.7156 12.4697ZM35.5342 12.5061C35.2997 12.6276 35.2148 12.9099 35.3359 13.1346C35.4649 13.3578 35.756 13.4444 35.9873 13.3229C36.2217 13.203 36.3114 12.9206 36.184 12.6928C36.0959 12.5395 35.9291 12.4514 35.7592 12.4514C35.6836 12.4514 35.6065 12.4697 35.5342 12.5061ZM44.1656 13.7161C43.9878 13.8057 43.9217 14.0198 44.0192 14.1883C44.1105 14.3568 44.3323 14.4191 44.5023 14.3325C44.6801 14.2338 44.7477 14.0213 44.6549 13.8558C44.5888 13.7389 44.4645 13.6736 44.3371 13.6736C44.2773 13.6736 44.2206 13.6888 44.1656 13.7161ZM35.1518 13.8755C34.9505 13.9803 34.8765 14.2262 34.9835 14.4221C35.0968 14.6225 35.3501 14.6938 35.5546 14.5876C35.7576 14.4798 35.8347 14.2308 35.7245 14.038C35.649 13.9029 35.5043 13.8254 35.3548 13.8254C35.2872 13.8239 35.2164 13.8391 35.1518 13.8755ZM44.1687 15.0385C43.9626 15.1478 43.8902 15.3907 43.9956 15.5911C44.1042 15.7839 44.367 15.8568 44.5699 15.752C44.7729 15.6443 44.8468 15.3983 44.7367 15.2025C44.6612 15.0658 44.518 14.9899 44.3685 14.9899C44.3009 14.9899 44.2332 15.0051 44.1687 15.0385ZM35.2132 15.2951C35.0401 15.3877 34.9741 15.6002 35.07 15.7687C35.1644 15.9403 35.3847 15.9995 35.5562 15.9054C35.7324 15.8188 35.8032 15.6033 35.7041 15.4363C35.6364 15.3209 35.5137 15.2541 35.3847 15.2541C35.3265 15.2541 35.2667 15.2677 35.2132 15.2951ZM43.7329 16.3016C43.4985 16.4201 43.4119 16.7085 43.5362 16.9332C43.6652 17.1564 43.9547 17.2414 44.1845 17.12C44.4236 16.9955 44.507 16.7176 44.3843 16.4899C44.2977 16.335 44.1325 16.2455 43.961 16.2455C43.8839 16.2455 43.8053 16.2637 43.7329 16.3016ZM35.7167 16.6417C35.5688 16.7161 35.5169 16.8922 35.5955 17.038C35.6742 17.1761 35.8536 17.2293 36.003 17.1549C36.1478 17.0759 36.2028 16.8998 36.1226 16.7586C36.0675 16.663 35.9621 16.6068 35.8551 16.6068C35.8079 16.6083 35.7607 16.619 35.7167 16.6417ZM42.8959 17.3811C42.6316 17.5177 42.5356 17.8366 42.6772 18.0871C42.8172 18.3406 43.1445 18.4347 43.4104 18.2966C43.6731 18.1645 43.7691 17.8442 43.6275 17.5921C43.5284 17.4175 43.3427 17.3173 43.1508 17.3173C43.0642 17.3173 42.9777 17.3386 42.8959 17.3811ZM36.5505 17.6832C36.3759 17.7713 36.3098 17.9853 36.4042 18.1524C36.4971 18.3224 36.7158 18.3846 36.8904 18.2905C37.0635 18.204 37.1295 17.9929 37.0367 17.8229C36.9722 17.7075 36.8479 17.6437 36.7205 17.6437C36.6638 17.6422 36.6056 17.6559 36.5505 17.6832ZM41.7269 18.1554C41.4311 18.3087 41.3162 18.667 41.4814 18.9555C41.6419 19.2409 42.0148 19.3472 42.3137 19.1954C42.6095 19.0375 42.7212 18.6777 42.5608 18.3968C42.449 18.1979 42.2382 18.0825 42.0195 18.0825C41.9204 18.081 41.8197 18.1038 41.7269 18.1554ZM37.6944 18.412C37.4851 18.5213 37.4112 18.7642 37.5245 18.9616C37.6299 19.1589 37.8879 19.2348 38.0924 19.1286C38.297 19.0177 38.3741 18.7687 38.2624 18.5744C38.1853 18.4408 38.0389 18.3634 37.891 18.3634C37.825 18.3619 37.7573 18.377 37.6944 18.412ZM40.4194 18.6716C40.1551 18.8067 40.0638 19.1225 40.207 19.3791C40.3439 19.6311 40.6712 19.7298 40.9355 19.5886C41.1998 19.455 41.2942 19.1362 41.1542 18.8841C41.0551 18.7095 40.8694 18.6109 40.6775 18.6109C40.5893 18.6093 40.5012 18.6291 40.4194 18.6716ZM39.0254 18.752C38.7926 18.8735 38.7092 19.1574 38.8319 19.3806C38.9609 19.6068 39.2504 19.6918 39.4849 19.5704C39.7209 19.4519 39.8074 19.168 39.6799 18.9403C39.595 18.7854 39.4282 18.6989 39.2551 18.6989C39.178 18.6989 39.0978 18.7156 39.0254 18.752Z" fill="#565E6E"/>
<path d="M39.0226 8.61197C38.9156 8.96268 39.1217 9.32857 39.4867 9.43484C39.8502 9.53808 40.2294 9.33464 40.3395 8.98697C40.448 8.63626 40.2404 8.26581 39.8769 8.16258C39.8108 8.14436 39.7448 8.13525 39.6803 8.13525C39.3829 8.13677 39.1123 8.32502 39.0226 8.61197ZM40.8618 8.82604C40.7391 9.2314 40.972 9.65043 41.3952 9.77037C41.8121 9.89031 42.2495 9.66106 42.3723 9.25873C42.4981 8.85185 42.259 8.42675 41.8389 8.30832C41.7649 8.28707 41.691 8.27796 41.617 8.27796C41.2756 8.27948 40.9625 8.49507 40.8618 8.82604ZM37.1771 8.9809C37.0827 9.29365 37.2699 9.62007 37.594 9.71268C37.9149 9.80377 38.2564 9.62766 38.3508 9.31339C38.442 9.00367 38.2564 8.67573 37.937 8.58312C37.8803 8.56642 37.8237 8.56035 37.7671 8.56035C37.5012 8.55883 37.2573 8.72583 37.1771 8.9809ZM42.7231 9.66409C42.6161 10.0133 42.8254 10.3822 43.1888 10.4855C43.5523 10.5887 43.9346 10.3853 44.0416 10.0346C44.1501 9.68535 43.9425 9.31642 43.5774 9.21167C43.5129 9.19345 43.4468 9.18434 43.3839 9.18434C43.0866 9.18434 42.8128 9.37411 42.7231 9.66409ZM35.5911 9.92067C35.5156 10.1682 35.6603 10.4232 35.9168 10.4976C36.1717 10.569 36.4391 10.4263 36.5131 10.1818C36.587 9.93737 36.4407 9.67928 36.1874 9.6064C36.1418 9.59426 36.0962 9.58818 36.0521 9.58818C35.8428 9.58667 35.6525 9.71875 35.5911 9.92067ZM44.2131 10.9743C44.1171 11.2901 44.3043 11.615 44.6253 11.7061C44.9494 11.7972 45.2861 11.6165 45.3836 11.3038C45.4796 10.9941 45.2955 10.6677 44.9699 10.5766C44.9132 10.5599 44.855 10.5523 44.7984 10.5523C44.5372 10.5538 44.2949 10.7193 44.2131 10.9743ZM34.3356 11.3129C34.2742 11.5103 34.3938 11.7198 34.5999 11.776C34.806 11.8336 35.02 11.7213 35.0829 11.5239C35.1474 11.3266 35.0247 11.1186 34.8202 11.0578C34.784 11.0487 34.7494 11.0442 34.7148 11.0442C34.5433 11.0427 34.3859 11.1459 34.3356 11.3129ZM45.2735 12.6626C45.1964 12.9131 45.3475 13.1697 45.5992 13.2395C45.8557 13.3124 46.1216 13.1712 46.1955 12.9252C46.271 12.6793 46.1263 12.4212 45.8714 12.3514C45.8258 12.3377 45.7786 12.3316 45.7329 12.3316C45.5253 12.3316 45.3333 12.4637 45.2735 12.6626ZM33.5977 13.0406C33.5521 13.1909 33.637 13.3488 33.7912 13.3929C33.947 13.4369 34.1074 13.3488 34.1531 13.2C34.1987 13.0528 34.1106 12.8964 33.9548 12.8524C33.9265 12.8448 33.8998 12.8417 33.873 12.8417C33.7487 12.8402 33.6339 12.9192 33.5977 13.0406ZM45.7235 14.5406C45.6606 14.7365 45.7786 14.949 45.9878 15.0052C46.1939 15.0644 46.4079 14.9506 46.4708 14.7501C46.5306 14.5543 46.4158 14.3448 46.2065 14.2856C46.1703 14.2765 46.1341 14.2704 46.0979 14.2704C45.928 14.2689 45.7707 14.3767 45.7235 14.5406ZM33.2484 14.8807C33.187 15.0796 33.3082 15.2861 33.5143 15.3453C33.7204 15.4045 33.9344 15.2922 33.9973 15.0917C34.0587 14.8944 33.9407 14.6849 33.7346 14.6257C33.6984 14.6165 33.6622 14.6105 33.626 14.6105C33.4577 14.6105 33.3019 14.7183 33.2484 14.8807ZM45.5646 16.4339C45.5221 16.5811 45.6086 16.739 45.7597 16.7815C45.917 16.8256 46.0759 16.742 46.12 16.5902C46.1672 16.4445 46.0806 16.2866 45.9233 16.2426C45.8966 16.235 45.8714 16.2319 45.8446 16.2319C45.7203 16.2319 45.6023 16.3124 45.5646 16.4339ZM33.5269 16.7086C33.4545 16.9531 33.593 17.2127 33.851 17.2841C34.1043 17.3584 34.3718 17.2142 34.4457 16.9683C34.5212 16.7223 34.3749 16.4642 34.1216 16.3974C34.0744 16.3837 34.0272 16.3777 33.98 16.3777C33.7739 16.3762 33.5851 16.5082 33.5269 16.7086ZM44.6363 18.1084C44.5781 18.3089 44.6945 18.5184 44.8975 18.5745C45.1067 18.6338 45.3239 18.5199 45.3836 18.321C45.4419 18.1251 45.3254 17.9126 45.1193 17.8534C45.0831 17.8443 45.047 17.8382 45.0108 17.8382C44.844 17.8382 44.6882 17.9445 44.6363 18.1084ZM34.334 18.3256C34.238 18.6368 34.4221 18.9632 34.7462 19.0573C35.0735 19.1499 35.4086 18.9708 35.5062 18.6596C35.6006 18.3483 35.4118 18.0174 35.0892 17.9247C35.031 17.908 34.9744 17.9005 34.9177 17.9005C34.655 17.9005 34.4142 18.0675 34.334 18.3256ZM43.2061 19.4506C43.1338 19.695 43.2817 19.9531 43.535 20.026C43.7883 20.0988 44.0557 19.9576 44.1281 19.7147C44.2052 19.4673 44.0605 19.2092 43.8056 19.1378C43.76 19.1241 43.7128 19.1181 43.6671 19.1181C43.4594 19.1181 43.2691 19.2517 43.2061 19.4506ZM35.6808 19.6009C35.5754 19.9485 35.7783 20.3159 36.1449 20.4207C36.5115 20.5224 36.8907 20.3205 36.9993 19.9728C37.1047 19.6251 36.897 19.2532 36.532 19.1499C36.4659 19.1317 36.4014 19.1226 36.3385 19.1226C36.0395 19.1226 35.7689 19.3109 35.6808 19.6009ZM37.3454 20.3751C37.2243 20.782 37.4587 21.2026 37.8803 21.3225C38.2973 21.4379 38.7394 21.2056 38.8574 20.8063C38.9801 20.401 38.7441 19.9774 38.3224 19.859C38.2485 19.8392 38.1746 19.8286 38.1006 19.8286C37.7592 19.8286 37.4445 20.0442 37.3454 20.3751ZM41.3685 20.319C41.2741 20.6317 41.4613 20.9597 41.7822 21.0508C42.1079 21.1418 42.4462 20.9657 42.5406 20.6515C42.635 20.3417 42.4525 20.0138 42.1268 19.9227C42.0686 19.9045 42.0104 19.8969 41.9537 19.8969C41.6894 19.8969 41.4455 20.0639 41.3685 20.319ZM39.3782 20.6484C39.2728 20.9961 39.482 21.362 39.8439 21.4667C40.2089 21.573 40.5912 21.3711 40.6951 21.0219C40.7989 20.6697 40.5959 20.3008 40.2309 20.199C40.1648 20.1808 40.1003 20.1717 40.0358 20.1717C39.74 20.1717 39.4663 20.3584 39.3782 20.6484Z" fill="#565E6E"/>
<path d="M40.3426 6.33957C40.0468 6.64322 40.0609 7.12145 40.3772 7.40688C40.6919 7.69382 41.1875 7.68016 41.4817 7.37652C41.779 7.07135 41.7617 6.59615 41.4486 6.30769C41.2976 6.17105 41.1057 6.10425 40.9137 6.10425C40.706 6.10425 40.4968 6.1832 40.3426 6.33957ZM37.8646 6.52479C37.6317 6.76467 37.6427 7.13967 37.8913 7.36741C38.1383 7.59058 38.5285 7.57844 38.7629 7.34008C38.9942 7.10172 38.9832 6.72368 38.7362 6.49898C38.6166 6.39119 38.4656 6.33805 38.3145 6.33805C38.1493 6.33957 37.9857 6.40182 37.8646 6.52479ZM42.7703 6.97722C42.4367 7.31731 42.4509 7.85324 42.8049 8.17662C43.1573 8.49848 43.719 8.48178 44.0494 8.14322C44.3814 7.80162 44.3672 7.26265 44.0132 6.94231C43.8417 6.78745 43.6246 6.71002 43.4075 6.71002C43.1762 6.7085 42.9433 6.79959 42.7703 6.97722ZM35.4998 7.44787C35.311 7.64069 35.3204 7.94281 35.5203 8.12803C35.7216 8.3087 36.0379 8.30111 36.2267 8.10678C36.4155 7.91396 36.406 7.6088 36.2062 7.42814C36.1087 7.3416 35.986 7.29757 35.8632 7.29757C35.7295 7.29757 35.5989 7.34767 35.4998 7.44787ZM44.8251 8.30567C44.4396 8.69737 44.4553 9.31225 44.8644 9.68421C45.2703 10.0577 45.9122 10.0364 46.2946 9.64777C46.6785 9.25152 46.6596 8.6336 46.2537 8.26316C46.057 8.08552 45.8084 7.99747 45.5614 7.99747C45.2923 7.99747 45.0233 8.10071 44.8251 8.30567ZM33.5363 9.06933C33.3947 9.21508 33.4009 9.43977 33.5504 9.57641C33.703 9.71457 33.9375 9.70698 34.0759 9.56275C34.2175 9.417 34.2097 9.19079 34.0618 9.05415C33.9878 8.99038 33.895 8.9585 33.8037 8.9585C33.7062 8.95698 33.6086 8.99494 33.5363 9.06933ZM46.5117 10.378C46.1781 10.7181 46.1923 11.2571 46.5494 11.579C46.905 11.9008 47.462 11.8811 47.7924 11.5425C48.1275 11.1994 48.1118 10.665 47.7546 10.3401C47.5863 10.1867 47.3707 10.1108 47.1552 10.1108C46.9192 10.1108 46.6848 10.2004 46.5117 10.378ZM31.9771 11.0567C31.7867 11.2495 31.7977 11.5531 31.9991 11.7368C32.1989 11.9175 32.5136 11.9099 32.704 11.7186C32.8896 11.5258 32.8817 11.2222 32.6819 11.04C32.586 10.9519 32.4632 10.9079 32.3405 10.9079C32.2083 10.9064 32.0762 10.958 31.9771 11.0567ZM47.4573 12.8057C47.1599 13.1093 47.1756 13.5876 47.4919 13.873C47.8066 14.1614 48.3037 14.1447 48.5979 13.8411C48.8953 13.539 48.8796 13.0607 48.5649 12.7753C48.4139 12.6372 48.2203 12.5688 48.0268 12.5688C47.8191 12.5673 47.6115 12.6478 47.4573 12.8057ZM31.1636 13.3917C30.9339 13.6316 30.9402 14.0051 31.1904 14.2298C31.4374 14.456 31.8276 14.4423 32.062 14.2055C32.2949 13.9671 32.2807 13.5876 32.0368 13.3644C31.9157 13.2551 31.7631 13.2019 31.6121 13.2019C31.4484 13.2034 31.2848 13.2657 31.1636 13.3917ZM47.6555 15.4246C47.4227 15.663 47.4368 16.0395 47.6838 16.2642C47.934 16.4919 48.321 16.4782 48.5555 16.2384C48.7883 16 48.7805 15.625 48.5287 15.3988C48.4107 15.291 48.2597 15.2379 48.1071 15.2379C47.9419 15.2394 47.7767 15.3016 47.6555 15.4246ZM31.1196 15.789C30.8254 16.0911 30.8395 16.5709 31.1542 16.8563C31.4689 17.1447 31.9645 17.1296 32.2603 16.8259C32.5561 16.5238 32.5419 16.0456 32.2272 15.7556C32.0762 15.6189 31.8842 15.5506 31.6923 15.5506C31.483 15.5506 31.2754 15.6311 31.1196 15.789ZM47.0152 17.913C46.8248 18.1058 46.8342 18.4109 47.0356 18.5962C47.2386 18.7783 47.5532 18.7692 47.7436 18.5719C47.9308 18.3791 47.923 18.0739 47.7232 17.8917C47.6256 17.8052 47.5029 17.7627 47.3802 17.7611C47.2464 17.7611 47.1143 17.8112 47.0152 17.913ZM31.9267 18.0891C31.5932 18.4276 31.6042 18.9651 31.9598 19.29C32.3169 19.6103 32.8739 19.5921 33.2043 19.2536C33.5378 18.9135 33.5205 18.373 33.1681 18.0542C32.9982 17.8993 32.7826 17.8219 32.5686 17.8219C32.3358 17.8204 32.0998 17.913 31.9267 18.0891ZM33.423 19.9853C33.0406 20.3831 33.0595 20.9934 33.467 21.3669C33.873 21.7374 34.5149 21.7207 34.8956 21.3259C35.2795 20.9327 35.2607 20.3178 34.8532 19.9443C34.6565 19.7667 34.4079 19.6787 34.1593 19.6787C33.8903 19.6771 33.6212 19.7804 33.423 19.9853ZM45.64 20.0719C45.5 20.2161 45.5079 20.4438 45.6558 20.579C45.8068 20.7126 46.0413 20.7065 46.1813 20.5607C46.3229 20.4195 46.3166 20.1903 46.1656 20.0567C46.0948 19.9914 46.0035 19.958 45.9107 19.958H45.9091C45.81 19.958 45.7124 19.996 45.64 20.0719ZM35.6666 21.4914C35.3346 21.8269 35.3503 22.3659 35.7059 22.6908C36.0599 23.0127 36.6185 22.996 36.9489 22.6544C37.2808 22.3128 37.2683 21.7753 36.9127 21.4535C36.7428 21.2986 36.5256 21.2227 36.3101 21.2227C36.0741 21.2227 35.8412 21.3123 35.6666 21.4914ZM43.4924 21.5233C43.302 21.7161 43.3115 22.0228 43.5113 22.2034C43.7143 22.3872 44.0289 22.3765 44.2177 22.1822C44.4065 21.9909 44.3987 21.6873 44.1973 21.5036C44.1013 21.4155 43.977 21.3715 43.8543 21.3715C43.7221 21.373 43.59 21.4231 43.4924 21.5233ZM38.2343 22.2536C37.9385 22.5557 37.9527 23.037 38.2689 23.3193C38.5867 23.6078 39.0792 23.5941 39.3734 23.2905C39.6708 22.9884 39.6582 22.5086 39.3435 22.2232C39.1925 22.085 39.0005 22.0167 38.807 22.0167C38.5962 22.0182 38.3885 22.0972 38.2343 22.2536ZM40.9562 22.2915C40.7249 22.5283 40.7359 22.9049 40.9829 23.1311C41.2315 23.3573 41.6217 23.3421 41.8546 23.1053C42.0874 22.8684 42.078 22.4904 41.8294 22.2657C41.7098 22.1579 41.5572 22.1048 41.4077 22.1048C41.2425 22.1048 41.0773 22.167 40.9562 22.2915Z" fill="#565E6E"/>
<path d="M40.9985 3.67041C40.6304 3.74176 40.3928 4.08185 40.4667 4.43863C40.5407 4.79085 40.8963 5.0201 41.2628 4.95027C41.6294 4.87891 41.867 4.53579 41.7931 4.18205C41.7286 3.87081 41.4469 3.65674 41.1307 3.65674C41.0898 3.65826 41.0441 3.66282 40.9985 3.67041ZM38.1932 3.84956C37.9053 3.89207 37.7055 4.14865 37.7464 4.428C37.7905 4.70735 38.0595 4.89865 38.3474 4.85765C38.6354 4.81666 38.8367 4.55857 38.7943 4.27921C38.7565 4.02567 38.5299 3.84349 38.2703 3.84349C38.2452 3.84349 38.22 3.845 38.1932 3.84956ZM43.7015 4.22304C43.2641 4.33083 42.9967 4.76049 43.11 5.18559C43.2232 5.60765 43.6701 5.86575 44.1075 5.75644C44.5449 5.64865 44.8108 5.21595 44.699 4.79541C44.6031 4.43559 44.2711 4.20027 43.9045 4.20027C43.84 4.19875 43.7708 4.20634 43.7015 4.22304ZM35.3234 4.67091C35.0733 4.77415 34.9569 5.05199 35.0654 5.2949C35.1724 5.53478 35.4635 5.64561 35.7121 5.54237C35.9607 5.43913 36.0786 5.15826 35.9701 4.9199C35.8898 4.73923 35.7089 4.63296 35.5185 4.63296C35.4556 4.63144 35.388 4.6451 35.3234 4.67091ZM46.0977 5.39359C45.5597 5.55603 45.256 6.10715 45.4259 6.62942C45.5927 7.14865 46.1686 7.43863 46.7066 7.27618C47.2463 7.11373 47.5452 6.55958 47.3769 6.04035C47.24 5.61828 46.8388 5.34804 46.4046 5.34804C46.3039 5.34804 46.2 5.36322 46.0977 5.39359ZM32.7337 6.12081C32.5056 6.29541 32.4662 6.61575 32.6472 6.83741C32.8297 7.05907 33.1632 7.09551 33.3898 6.92091C33.6195 6.7448 33.6604 6.42597 33.4779 6.20431C33.3725 6.07678 33.2199 6.0115 33.0641 6.0115C32.9477 6.0115 32.8312 6.04794 32.7337 6.12081ZM48.066 7.23519C47.4807 7.4447 47.1818 8.06717 47.3989 8.63347C47.616 9.19824 48.2643 9.48519 48.8464 9.27719C49.4301 9.06919 49.729 8.44217 49.5135 7.87891C49.3436 7.43863 48.914 7.16838 48.4578 7.16838C48.3272 7.16687 48.195 7.18964 48.066 7.23519ZM30.6758 7.96697C30.3705 8.17648 30.2966 8.58033 30.5137 8.8779C30.7308 9.17091 31.1525 9.24075 31.4561 9.03276C31.7614 8.82324 31.8337 8.41484 31.6182 8.12334C31.486 7.94267 31.2768 7.84703 31.066 7.84703C30.9322 7.84703 30.7953 7.88498 30.6758 7.96697ZM49.4364 9.54136C48.8134 9.80097 48.5254 10.4932 48.7945 11.096C49.0619 11.6957 49.7841 11.9735 50.4056 11.7154C51.0271 11.4558 51.315 10.7589 51.0459 10.1592C50.8461 9.7114 50.3946 9.44419 49.921 9.44419C49.7589 9.44419 49.5937 9.47608 49.4364 9.54136ZM29.2346 10.2412C28.8538 10.475 28.7374 10.9624 28.9813 11.3328C29.222 11.7017 29.7302 11.8126 30.1109 11.5803C30.4948 11.3465 30.6081 10.8561 30.3658 10.4857C30.21 10.2473 29.9457 10.1182 29.6735 10.1182C29.5241 10.1182 29.3715 10.1592 29.2346 10.2412ZM50.2026 12.309C49.6457 12.5747 49.4159 13.2276 49.6929 13.765C49.9713 14.307 50.6463 14.5241 51.2033 14.2569C51.7602 13.9912 51.9899 13.3414 51.713 12.8009C51.5164 12.4183 51.1152 12.1967 50.6998 12.1967C50.533 12.1967 50.3631 12.2331 50.2026 12.309ZM28.4731 12.7296C27.9806 12.9953 27.806 13.595 28.0829 14.0717C28.3582 14.5454 28.9813 14.7154 29.4737 14.4482C29.9662 14.1825 30.1408 13.5798 29.8639 13.1046C29.6767 12.7827 29.3305 12.602 28.9734 12.602C28.805 12.602 28.632 12.6415 28.4731 12.7296ZM50.2404 15.1845C49.7495 15.4502 49.5733 16.053 49.8502 16.5282C50.1271 17.0049 50.7501 17.1704 51.241 16.9032C51.7335 16.636 51.9097 16.0378 51.6312 15.5611C51.444 15.2392 51.0979 15.057 50.7407 15.057C50.5724 15.057 50.3993 15.0995 50.2404 15.1845ZM28.5124 15.3743C27.957 15.6385 27.7242 16.2898 28.0026 16.8303C28.2796 17.3693 28.9577 17.5879 29.5146 17.3222C30.0716 17.0565 30.3013 16.4037 30.0244 15.8662C29.8262 15.4806 29.4312 15.2605 29.0174 15.2605C28.846 15.2605 28.6729 15.2969 28.5124 15.3743ZM29.3117 17.9173C28.6902 18.1754 28.4007 18.8693 28.6697 19.4735C28.9372 20.0747 29.6625 20.3495 30.2824 20.0914C30.9039 19.8318 31.1902 19.1349 30.9212 18.5352C30.7214 18.0874 30.2698 17.8217 29.7963 17.8217C29.6342 17.8202 29.469 17.8505 29.3117 17.9173ZM49.6048 18.0525C49.2224 18.2878 49.1076 18.7751 49.3499 19.1441C49.5922 19.5145 50.0988 19.6223 50.4811 19.39C50.8619 19.1562 50.9783 18.6704 50.7344 18.2984C50.5787 18.06 50.3112 17.931 50.0406 17.931C49.8911 17.9295 49.7401 17.969 49.6048 18.0525ZM30.8677 20.3556C30.2856 20.5651 29.9851 21.1906 30.2022 21.7524C30.4193 22.3202 31.0691 22.6041 31.6497 22.3946C32.235 22.185 32.5339 21.5641 32.3168 20.9963C32.1484 20.559 31.7173 20.2873 31.2595 20.2873C31.1289 20.2873 30.9967 20.31 30.8677 20.3556ZM48.258 20.6C47.9527 20.8095 47.8804 21.2164 48.0959 21.511C48.3146 21.807 48.7347 21.8753 49.0415 21.6673C49.3451 21.4593 49.4175 21.0525 49.2004 20.7549C49.0682 20.5757 48.859 20.4801 48.6466 20.4801C48.5128 20.4801 48.376 20.518 48.258 20.6ZM33.009 22.3566C32.471 22.5175 32.1704 23.0702 32.3404 23.5909C32.5087 24.1147 33.0798 24.4016 33.6179 24.2377C34.1576 24.0767 34.4597 23.5256 34.2913 23.0049C34.1544 22.5828 33.7501 22.3111 33.3143 22.3111C33.212 22.3111 33.1097 22.3262 33.009 22.3566ZM46.3259 22.7103C46.0977 22.8865 46.0584 23.2068 46.2394 23.4269C46.4203 23.6501 46.7538 23.6835 46.982 23.5105C47.2117 23.3343 47.251 23.0155 47.0685 22.7923C46.9647 22.6648 46.8105 22.5995 46.6547 22.5995C46.5399 22.601 46.4234 22.636 46.3259 22.7103ZM35.6082 23.8779C35.1708 23.9857 34.9065 24.4153 35.0182 24.8389C35.1299 25.2655 35.5752 25.5175 36.0141 25.4097C36.4531 25.3004 36.719 24.8738 36.6073 24.4487C36.5129 24.0904 36.1793 23.8536 35.8128 23.8536C35.7451 23.8536 35.6774 23.8596 35.6082 23.8779ZM44.0021 24.0904C43.7535 24.1921 43.637 24.473 43.7456 24.7129C43.8542 24.9558 44.1436 25.0651 44.3922 24.9619C44.6424 24.8586 44.7588 24.5778 44.6503 24.3364C44.57 24.1572 44.3875 24.0494 44.1971 24.0494C44.1326 24.0509 44.0681 24.0631 44.0021 24.0904ZM38.4513 24.681C38.0847 24.7524 37.8471 25.097 37.921 25.4492C37.995 25.8045 38.3521 26.0337 38.7187 25.9624C39.0838 25.8895 39.3229 25.5479 39.249 25.1911C39.1844 24.8814 38.9012 24.6673 38.585 24.6673C38.5409 24.6673 38.4969 24.6719 38.4513 24.681ZM41.3683 24.7736C41.0803 24.8146 40.8805 25.0742 40.923 25.3536C40.9655 25.6329 41.2345 25.8242 41.5224 25.7832C41.8119 25.7422 42.0133 25.4841 41.9693 25.2048C41.9315 24.9497 41.7034 24.7675 41.4438 24.7675C41.4202 24.7675 41.3934 24.7691 41.3683 24.7736Z" fill="#565E6E"/>
<path d="M39.2271 1.27282C39.2271 1.60986 39.5103 1.88162 39.8564 1.88162C40.2057 1.88162 40.4889 1.60986 40.4889 1.27282C40.4889 0.934251 40.2057 0.665527 39.8564 0.665527C39.5103 0.665527 39.2271 0.934251 39.2271 1.27282ZM42.8364 1.56431C42.7388 1.91502 42.9544 2.27181 43.3147 2.36442C43.6765 2.45855 44.0494 2.25207 44.1454 1.90288C44.2429 1.55369 44.0258 1.19691 43.664 1.10278C43.6057 1.0876 43.546 1.08 43.4877 1.08C43.1904 1.08152 42.9182 1.27282 42.8364 1.56431ZM36.0505 1.10429C35.6902 1.19691 35.4731 1.55369 35.5706 1.90288C35.6666 2.25207 36.0411 2.45855 36.3998 2.36442C36.7617 2.27181 36.9772 1.91351 36.8812 1.5628C36.7994 1.2713 36.5272 1.08 36.2283 1.08C36.1701 1.08152 36.1103 1.08759 36.0505 1.10429ZM46.0287 2.90946C45.9296 3.36189 46.2285 3.80672 46.6958 3.90237C47.1647 3.99802 47.6241 3.70956 47.7248 3.26016C47.8255 2.8047 47.525 2.3629 47.0577 2.26877C46.9963 2.25662 46.935 2.25055 46.8736 2.25055C46.474 2.24903 46.1152 2.51624 46.0287 2.90946ZM32.6584 2.26725C32.1911 2.3629 31.8906 2.8047 31.9897 3.26016C32.0888 3.71108 32.5498 3.99954 33.0171 3.90237C33.4859 3.80672 33.7849 3.36189 33.6858 2.90946C33.5992 2.51624 33.2405 2.24903 32.8409 2.24903C32.7811 2.24903 32.7197 2.25358 32.6584 2.26725ZM48.7459 5.08051C48.6546 5.63314 49.0464 6.15389 49.6191 6.24195C50.1886 6.33 50.7299 5.95045 50.8196 5.39782C50.9108 4.84215 50.5175 4.32747 49.9479 4.2379C49.8913 4.23031 49.8362 4.22575 49.7811 4.22575C49.273 4.22575 48.8277 4.5795 48.7459 5.08051ZM29.7697 4.2379C29.1986 4.32596 28.8068 4.84063 28.8981 5.3963C28.9877 5.94893 29.5258 6.32697 30.0985 6.24043C30.6728 6.15237 31.0646 5.63162 30.9733 5.07899C30.8915 4.57798 30.4447 4.22423 29.938 4.22423C29.8814 4.22575 29.8263 4.22879 29.7697 4.2379ZM50.7094 7.91199C50.6339 8.60581 51.1578 9.22828 51.8753 9.30116C52.5959 9.37403 53.2394 8.86998 53.3133 8.17616C53.3888 7.4793 52.8681 6.85986 52.149 6.78699C52.1018 6.78243 52.0562 6.78091 52.0106 6.78091C51.3513 6.78091 50.7802 7.26067 50.7094 7.91199ZM27.567 6.78699C26.8464 6.85986 26.3256 7.4793 26.4027 8.17616C26.4782 8.86998 27.1202 9.37403 27.8408 9.30116C28.5598 9.22828 29.0821 8.60581 29.0066 7.91199C28.9358 7.26067 28.3678 6.78091 27.707 6.78091C27.6598 6.78091 27.6126 6.78091 27.567 6.78699ZM51.9775 11.2353C51.9366 12.0035 52.5471 12.6594 53.3416 12.7004C54.1393 12.7399 54.8206 12.1508 54.8615 11.3811C54.904 10.6098 54.2888 9.95855 53.4958 9.91755C53.4691 9.91604 53.4423 9.91604 53.4172 9.91604C52.6541 9.91604 52.0185 10.4884 51.9775 11.2353ZM26.2202 9.91907C25.4288 9.95855 24.8136 10.6098 24.8546 11.3826C24.897 12.1508 25.5783 12.7414 26.3744 12.7019C27.1705 12.6609 27.781 12.0051 27.7401 11.2368C27.6992 10.4899 27.0635 9.91755 26.2989 9.91755C26.2737 9.91604 26.2454 9.91755 26.2202 9.91907ZM52.3221 14.8138C52.3221 15.6518 53.0238 16.332 53.8907 16.332C54.7592 16.332 55.4625 15.6518 55.4625 14.8153C55.4625 13.9727 54.7592 13.3001 53.8939 13.3001C53.0238 13.3001 52.3221 13.9727 52.3221 14.8138ZM24.252 14.8153C24.252 15.6518 24.9584 16.332 25.8253 16.332C26.6906 16.332 27.3924 15.6518 27.3924 14.8138C27.3924 13.9727 26.6906 13.3016 25.8253 13.3016C24.9584 13.3001 24.252 13.9727 24.252 14.8153ZM53.3401 16.9302C52.5471 16.9696 51.9351 17.6255 51.976 18.3937C52.0169 19.1665 52.6966 19.751 53.4942 19.7115C54.2872 19.6721 54.9008 19.0223 54.8599 18.248C54.8206 17.5056 54.1802 16.9286 53.4172 16.9286C53.3904 16.9286 53.3652 16.9286 53.3401 16.9302ZM24.8561 18.248C24.8152 19.0223 25.4288 19.6721 26.2218 19.7115C27.0195 19.751 27.6992 19.168 27.7416 18.3937C27.7841 17.6255 27.1721 16.9696 26.376 16.9302C26.3508 16.9286 26.3256 16.9286 26.3005 16.9286C25.5358 16.9286 24.8955 17.5056 24.8561 18.248ZM51.8753 20.331C51.1578 20.4038 50.6339 21.0263 50.7094 21.7201C50.7849 22.417 51.4316 22.9165 52.149 22.8436C52.8681 22.7707 53.3904 22.1528 53.3133 21.456C53.2425 20.8062 52.6761 20.3249 52.0137 20.3249C51.9681 20.3234 51.9209 20.3249 51.8753 20.331ZM26.4027 21.4544C26.3272 22.1513 26.848 22.7692 27.567 22.8421C28.286 22.915 28.9311 22.4155 29.0051 21.7186C29.0806 21.0248 28.5582 20.4023 27.8392 20.3294C27.792 20.3234 27.7464 20.3219 27.7007 20.3219C27.0399 20.3234 26.4735 20.8062 26.4027 21.4544ZM49.6191 23.3917C49.0464 23.4798 48.653 23.9975 48.7459 24.5516C48.8371 25.1073 49.3752 25.4808 49.9479 25.3942C50.519 25.3062 50.9124 24.7915 50.8196 24.2343C50.7377 23.7348 50.2893 23.3795 49.7827 23.3795C49.7292 23.378 49.6742 23.3826 49.6191 23.3917ZM28.8981 24.2328C28.8068 24.79 29.197 25.3047 29.7697 25.3927C30.344 25.4808 30.8805 25.1073 30.9733 24.5501C31.0646 23.9975 30.6728 23.4798 30.0985 23.3917C30.0434 23.3826 29.9868 23.3795 29.9333 23.3795C29.4251 23.3795 28.9799 23.7348 28.8981 24.2328ZM46.6958 25.7282C46.2269 25.8239 45.928 26.2687 46.0287 26.7211C46.1278 27.1751 46.5888 27.462 47.0577 27.3664C47.525 27.2707 47.8255 26.8274 47.7248 26.372C47.6382 25.9803 47.2779 25.71 46.8767 25.71C46.8185 25.71 46.7572 25.7161 46.6958 25.7282ZM31.9913 26.372C31.8906 26.8274 32.1911 27.2692 32.6584 27.3664C33.1257 27.462 33.5866 27.1736 33.6858 26.7211C33.7849 26.2702 33.486 25.8239 33.0187 25.7282C32.9589 25.7161 32.8975 25.71 32.8393 25.71C32.4381 25.71 32.0778 25.9803 31.9913 26.372ZM43.3147 27.2662C42.9544 27.3603 42.7388 27.7186 42.8348 28.0678C42.9323 28.4155 43.3037 28.622 43.664 28.5278C44.0258 28.4352 44.2429 28.0784 44.1454 27.7277C44.0652 27.4362 43.7898 27.2434 43.4893 27.2434C43.4327 27.2434 43.3745 27.2495 43.3147 27.2662ZM35.5706 27.7277C35.4747 28.0769 35.6902 28.4337 36.0505 28.5263C36.4124 28.6204 36.7837 28.414 36.8812 28.0648C36.9772 27.7171 36.7632 27.3588 36.3998 27.2647C36.3416 27.2495 36.2834 27.2419 36.2251 27.2419C35.9278 27.2434 35.6525 27.4347 35.5706 27.7277ZM39.2271 28.3593C39.2271 28.6964 39.5103 28.9666 39.8564 28.9666C40.2057 28.9666 40.4889 28.6964 40.4889 28.3578C40.4889 28.0223 40.2057 27.7505 39.8564 27.7505C39.5103 27.7505 39.2271 28.0223 39.2271 28.3593Z" fill="#565E6E"/>
</g>
</svg>
