<svg width="176" height="30" viewBox="0 0 176 30" fill="none" xmlns="http://www.w3.org/2000/svg">
<g clip-path="url(#clip0_509_1618)">
<mask id="mask0_509_1618" style="mask-type:luminance" maskUnits="userSpaceOnUse" x="46" y="0" width="84" height="30">
<path d="M129.333 0H46V30H129.333V0Z" fill="white"/>
</mask>
<g mask="url(#mask0_509_1618)">
<mask id="mask1_509_1618" style="mask-type:luminance" maskUnits="userSpaceOnUse" x="46" y="0" width="84" height="30">
<path d="M129.293 0H46V30H129.293V0Z" fill="white"/>
</mask>
<g mask="url(#mask1_509_1618)">
<mask id="mask2_509_1618" style="mask-type:luminance" maskUnits="userSpaceOnUse" x="46" y="10" width="81" height="21">
<path d="M126.887 10.6289H126.896L126.899 10.6162L126.887 10.6289ZM126.896 10.6289L126.885 10.6318L126.882 10.634L90.6227 21.9236L105.323 25.6415L126.865 10.6526L111.356 27.1547L122.592 30.0005L126.896 10.6311L126.899 10.6289H126.896ZM46 10.6289L82.0892 19.7568L126.885 10.6318L126.887 10.6289H46Z" fill="white"/>
</mask>
<g mask="url(#mask2_509_1618)">
<path d="M127.398 30.1376H45.8994V10.4453H127.398V30.1376Z" fill="#565E6E"/>
</g>
<path d="M49.064 0H51.9795L53.8926 6.3335H53.9191L55.2971 0H57.5711L55.511 9.14136H52.5955L50.6419 2.82052H50.6155L49.2515 9.14136H46.9775L49.064 0Z" fill="#565E6E"/>
<mask id="mask3_509_1618" style="mask-type:luminance" maskUnits="userSpaceOnUse" x="-27" y="-95" width="229" height="220">
<path d="M-26.4092 -94.3604H201.879V124.445H-26.4092V-94.3604Z" fill="white"/>
</mask>
<g mask="url(#mask3_509_1618)">
<path d="M62.3861 5.30811C62.3861 4.61564 62.1054 4.02606 61.2491 4.02606C60.2459 4.02606 59.6977 4.67974 59.5235 5.30811H62.3861ZM62.988 8.93581C62.1722 9.16692 61.3028 9.29513 60.634 9.29513C58.3865 9.29513 57.1826 7.97427 57.1826 6.34641C57.1958 4.84676 58.2395 2.53906 61.2359 2.53906C63.0013 2.53906 64.3257 3.39769 64.3257 5.34606C64.3257 5.60247 64.2455 6.1794 64.1514 6.56401H59.3897C59.417 7.2565 59.7645 7.80811 61.1955 7.80811C61.8105 7.80811 62.6536 7.65375 63.3092 7.3594L62.988 8.93581Z" fill="#565E6E"/>
<path d="M65.1815 2.69217H66.2385L66.7198 0.679688H69.0333L68.552 2.69217H70.4247L70.1307 4.25593H68.1639L67.7495 6.0508C67.643 6.53832 67.5488 6.85884 67.5488 7.1667C67.5488 7.60276 68.1112 7.84567 68.5793 7.84567C68.8196 7.84567 69.0871 7.74362 69.3281 7.66686L69.0606 9.17917C68.5652 9.25593 68.0839 9.30737 67.6157 9.30737C66.425 9.30737 65.2211 8.75661 65.2211 7.39695C65.2211 7.07644 65.2749 6.75593 65.4359 6.07695L65.8503 4.26943H64.8867L65.1815 2.69217Z" fill="#565E6E"/>
<path d="M79.4943 9.14143H76.7918L76.7249 4.4746H76.6985L74.3577 9.14143H71.642L71.04 2.69238H73.3545L73.395 7.35922H73.4214L75.6548 2.69238H78.478L78.5043 7.35922H78.5307L80.7114 2.69238H83.0655L79.4943 9.14143Z" fill="#565E6E"/>
<path d="M86.8639 4.10282C85.7401 4.10282 85.0317 5.26932 85.0317 6.29496C85.0317 7.16709 85.4999 7.74401 86.2883 7.73137C87.3726 7.73137 88.0677 6.85923 88.0677 5.39752C88.0677 4.73119 87.7597 4.10282 86.8639 4.10282ZM86.1149 9.29513C83.6272 9.29513 82.624 7.97427 82.624 6.34641C82.6371 4.07752 84.3487 2.53906 86.9844 2.53906C89.2716 2.53906 90.4754 3.8076 90.4622 5.42368C90.4622 8.11599 88.6291 9.29513 86.1149 9.29513Z" fill="#565E6E"/>
<path d="M94.2343 2.69256L93.9668 4.01342H93.994C94.3681 3.25684 95.1309 2.53906 96.0806 2.53906C96.3877 2.53906 96.7494 2.57701 97.0566 2.70522L96.5215 4.67974C96.2275 4.46214 95.8931 4.41069 95.4514 4.41069C94.4755 4.41069 93.8867 5.23137 93.7125 6.17941L93.0437 9.15428H90.7168L91.7869 4.38454C91.9067 3.83377 92.014 3.28214 92.0809 2.70522H94.2343V2.69256Z" fill="#565E6E"/>
<path d="M98.6751 0H101.029L99.7982 5.39726H99.8253L102.059 2.69231H104.708L101.912 5.79453L103.651 9.14136H101.069L99.7048 5.94889H99.6783L98.9559 9.14136H96.5879L98.6751 0Z" fill="#565E6E"/>
<path d="M108.28 3.79469H109.283C110.394 3.79469 111.25 3.53828 111.263 2.667C111.263 2.01248 110.862 1.73077 110.086 1.71812H108.735L108.28 3.79469ZM106.769 0H109.671C111.49 0.0126496 113.671 0.0641019 113.658 2.33299C113.644 3.88495 112.48 4.76889 111.022 4.9359V4.96119C111.771 5.0253 112.012 6.00034 112.146 6.58991L112.815 9.14136H110.42L109.939 6.80751C109.698 5.61572 109.31 5.52546 108.173 5.52546H107.906L107.117 9.14136H104.709L106.769 0Z" fill="#565E6E"/>
<path d="M116.533 7.80817C117.522 7.80817 118.124 7.1545 118.298 6.28236C118.098 6.24355 117.817 6.24355 117.683 6.24355C116.573 6.2056 115.757 6.59022 115.757 7.1545C115.757 7.4615 116.051 7.80817 116.533 7.80817ZM118.085 8.24425L118.058 8.21809V8.24425C117.563 8.98732 116.693 9.29518 115.784 9.29518C114.339 9.29518 113.537 8.67945 113.55 7.42355C113.563 5.83364 115.222 5.06441 117.269 5.06441C117.737 5.06441 118.205 5.10322 118.526 5.12851C118.553 5.03912 118.553 4.94886 118.553 4.8721C118.553 4.41073 118.085 4.03877 117.322 4.03877C116.48 4.03877 115.917 4.16698 115.142 4.55159L115.382 2.92373C116.065 2.70527 116.801 2.55176 117.857 2.55176C119.462 2.55176 120.773 3.15399 120.76 4.7439C120.76 5.75689 120.158 7.20509 119.89 9.15432H117.991L118.085 8.24425Z" fill="#565E6E"/>
<path d="M123.154 0H125.509L125.134 1.64136H122.78L123.154 0ZM122.553 2.69231H124.907L123.475 9.14136H121.121L122.553 2.69231Z" fill="#565E6E"/>
<path d="M126.939 0H129.293L127.26 9.14136H124.906L126.939 0Z" fill="#565E6E"/>
</g>
</g>
</g>
</g>
<defs>
<clipPath id="clip0_509_1618">
<rect width="84" height="30" fill="white" transform="translate(46)"/>
</clipPath>
</defs>
</svg>
